# xmcd
#
# Track frame offsets:
#	150
#	18547
#	35624
#	51570
#	74078
#	86572
#	99801
#	112524
#	123556
#	140610
#	157396
#	174416
#	189471
#
# Disc length: 2734 seconds
#
# Revision: 0
# Processed by: cddbd v1.5.2PL0 Copyright (c) Steve Scherf et al.
# Submitted via: audiograbber 1.83.01
#
DISCID=b70aac0d
DTITLE=Various Artist - Schlager-Ernte Aktuell
DYEAR=1900
DGENRE=Pop
TTITLE0=Heino  - Tampico
TTITLE1=Bernd Clüver  - Der Engel Der Sehnsucht
TTITLE2=Rex Gildo  - Hasta La Vista
TTITLE3=Manuela  - Etwas In Mir Wurde Traurig
TTITLE4=Michael Holm  - My Lady Of Spain
TTITLE5=Phil and John  - Marina
TTITLE6=Freddy Breck  - Rote Rosen
TTITLE7=Christian Anders  - In Den Augen Der Andern
TTITLE8=Renate Und Werner Leismann  - Ein Schlafsack Und Eine Gitarre
TTITLE9=Peter Rubin  - Wir Zwei Fahren Irgendwohin
TTITLE10=Randolph Rose  - Jerusalem
TTITLE11=Siw Inger  - Mittsommernacht
TTITLE12=Jonny Hill  - So Schön Ist Kanada
EXTD=
EXTT0=
EXTT1=
EXTT2=
EXTT3=
EXTT4=
EXTT5=
EXTT6=
EXTT7=
EXTT8=
EXTT9=
EXTT10=
EXTT11=
EXTT12=
PLAYORDER=
